<svg xmlns="http://www.w3.org/2000/svg" viewBox="0 0 512 512" role="img" aria-labelledby="title desc">
  <title id="title">PhiloCoffee Tarot Studio</title>
  <desc id="desc">A coffee and tarot themed PhiloCoffee app icon.</desc>
  <rect width="512" height="512" rx="112" fill="#f8f1df"/>
  <rect x="66" y="54" width="380" height="404" rx="34" fill="#fffaf1" stroke="#5a3825" stroke-width="18"/>
  <path d="M118 132h276M118 380h276" stroke="#c4963a" stroke-width="12" stroke-linecap="round"/>
  <circle cx="256" cy="256" r="116" fill="#5a3825"/>
  <path d="M184 234h111v48a55 55 0 0 1-55 55h-1a55 55 0 0 1-55-55v-48Z" fill="#fffaf1" opacity=".18"/>
  <path d="M300 250h24a31 31 0 0 1 0 62h-16" fill="none" stroke="#fffaf1" stroke-width="18" stroke-linecap="round"/>
  <path d="M184 234h116v48a55 55 0 0 1-55 55h-6a55 55 0 0 1-55-55v-48Z" fill="none" stroke="#fffaf1" stroke-width="18" stroke-linejoin="round"/>
  <path d="M170 360h154" stroke="#fffaf1" stroke-width="18" stroke-linecap="round"/>
  <path d="M222 156c-15 20 7 29-6 49M272 142c-15 20 7 29-6 49" stroke="#c4963a" stroke-width="16" stroke-linecap="round"/>
  <path d="M382 122l10 22 22 10-22 10-10 22-10-22-22-10 22-10 10-22ZM134 328l8 17 17 8-17 8-8 17-8-17-17-8 17-8 8-17Z" fill="#c4963a"/>
</svg>
